<svg data-v-0dd9719b="" version="1.0" xmlns="http://www.w3.org/2000/svg" xmlns:xlink="http://www.w3.org/1999/xlink" width="100%" height="100%" viewBox="0 0 340.000000 250.000000" preserveAspectRatio="xMidYMid meet" color-interpolation-filters="sRGB" style="margin: auto;"> <rect data-v-0dd9719b="" x="0" y="0" width="100%" height="100%" fill="#fff" fill-opacity="1" class="background"></rect> <rect data-v-0dd9719b="" x="0" y="0" width="100%" height="100%" fill="url(#watermark)" fill-opacity="1" class="watermarklayer"></rect> <g data-v-0dd9719b="" fill="#333" class="icon-text-wrapper icon-svg-group iconsvg" transform="translate(73.94999694824219,96.76789283752441)"><g class="iconsvg-imagesvg" transform="translate(0,0)"><g><rect fill="#333" fill-opacity="0" stroke-width="2" x="0" y="0" width="60" height="56.464211100863906" class="image-rect"></rect> <svg x="0" y="0" width="60" height="56.464211100863906" filtersec="colorsb9277266667" class="image-svg-svg primary" style="overflow: visible;"><svg xmlns="http://www.w3.org/2000/svg" viewBox="0.28515467047691345 0.27830439805984497 105.97604370117188 99.73069763183594"><path d="M91.2 16a53.15 53.15 0 0 1-1 75.14l-4.65-4.78A46.43 46.43 0 1 0 6.68 52.57a46.06 46.06 0 0 0 13.17 33l-4.78 4.67A53.17 53.17 0 0 1 91.2 16z" fill="#2b3990"></path><path d="M25.37 24.66A39.76 39.76 0 1 1 80.89 81.6l-4.65-4.78a33.09 33.09 0 1 0-46.83-.56l-4.78 4.66a39.79 39.79 0 0 1 .74-56.26z" fill="#2b3990"></path><path d="M34.68 34.21a26.43 26.43 0 1 1 36.9 37.84l-4.66-4.78A19.74 19.74 0 1 0 39 66.94l-4.81 4.66a26.44 26.44 0 0 1 .49-37.39z" fill="#2b3990"></path><path d="M44 43.76A13.09 13.09 0 1 1 62.27 62.5l-4.66-4.77a6.42 6.42 0 1 0-9.08-.11l-4.78 4.66A13.1 13.1 0 0 1 44 43.76z" fill="#2b3990"></path><path fill="#00aeef" d="M56.678 94.65l4.868-4.748 4.741 4.862-4.868 4.747zM38.09 94.553l4.868-4.747 4.74 4.86-4.868 4.748zM57.034 76.076l4.868-4.747 4.748 4.868-4.869 4.748zM66.147 85.413l4.868-4.748 4.74 4.862-4.868 4.747zM75.613 95.14l4.868-4.747 4.748 4.868-4.868 4.748zM48.142 66.954l4.868-4.748 4.74 4.861-4.868 4.748zM38.673 76.19l4.868-4.747 4.741 4.861-4.868 4.748zM52.44 80.57v-.01l-4.88 4.75.01.01 4.74 4.87 4.88-4.75-4.75-4.87zM29.207 85.43l4.869-4.747 4.74 4.861-4.868 4.748zM19.246 95.136l4.868-4.748 4.74 4.862-4.868 4.747z"></path></svg></svg> <!----></g></g> <g transform="translate(67,1.7108535766601562)"><g data-gra="path-name" fill-rule="" class="tp-name iconsvg-namesvg" transform="translate(0,0)"><g transform="scale(1)"><g><path d="M18.71-4.76Q19.67-3.14 23.12-0.52 26.57 2.1 30.9 4.76L30.9 4.76 25.48 4.76Q23.05 3.1 20.64 1.14 18.24-0.81 16.76-2.48L16.76-2.48Q15.52-0.62 12.83 1.31 10.14 3.24 7.1 4.76L7.1 4.76 1.57 4.76Q6.81 2.24 10.45-0.38 14.1-3 14.1-4.9L14.1-4.9 14.1-8.48 17.62-8.48 17.62-4.9 17.62-4.76 18.71-4.76ZM24.57-0.95L24.57-9.62Q24.57-10.14 24.29-10.38 24-10.62 23.62-10.62L23.62-10.62 7.62-10.62 7.62-0.95 4.05-0.95 4.05-13.62 24.76-13.62Q26.48-13.62 27.29-12.83 28.1-12.05 28.1-10.95L28.1-10.95 28.1-0.95 24.57-0.95ZM1.33-18.95L14.33-18.95 14.33-21.14 7.24-21.14 5.81-21.14 3.86-21.14 3.86-31.19 7.24-31.19 14.33-31.19 14.33-33.33 17.86-33.33 17.86-31.19 24.95-31.19Q26.67-31.19 27.5-30.4 28.33-29.62 28.33-28.52L28.33-28.52 28.33-21.14 27.48-21.14 24.95-21.14 17.86-21.14 17.86-18.95 30.86-18.95 30.86-15.95 1.33-15.95 1.33-18.95ZM23.29-28.19L17.86-28.19 17.86-24.14 24.95-24.14 24.95-26.1 24.95-26.38Q24.95-27.43 24.48-27.86 24-28.29 23.29-28.19L23.29-28.19ZM7.24-24.14L14.33-24.14 14.33-28.19 7.24-28.19 7.24-24.14ZM52.95-20.48L56.52-20.48 58.62-11.81 55-11.81 52.95-20.48ZM43.38-20.48L46.95-20.48 49.05-11.81 45.43-11.81 43.38-20.48ZM35.62-20.48L39.24-20.48 37.14-11.81 33.57-11.81 35.62-20.48ZM58.76-33.33L58.76 4.76 62.33 4.76 62.33-33.33 58.76-33.33ZM49.19-32.1L49.19 3.19 52.81 3.19 52.81-32.1 49.19-32.1ZM43.19-8.9Q43.19-4.9 41.69-1.31 40.19 2.29 38 4.76L38 4.76 34.05 4.76Q36.38 1.86 38-1.83 39.62-5.52 39.62-9.19L39.62-9.19 39.62-33.33 43.19-33.33 43.19-8.9ZM85.95-29.1L85.95-3.24 89.48-3.24 89.48-29.1 85.95-29.1ZM72.38-29.57Q71.57-26 70.6-23.1 69.62-20.19 68.76-18.38L68.76-18.38 65-18.38Q66.29-21.14 67.45-24.6 68.62-28.05 69.24-31.33L69.24-31.33 69.48-32.71 70.1-32.71 73.05-32.71 77.33-32.71Q79.62-32.71 80.33-30.52L80.33-30.52Q81.1-27.33 82.38-24.1 83.67-20.86 84.95-18.38L84.95-18.38 81.24-18.38Q79.43-21.86 77.33-28.48L77.33-28.48Q77.24-28.95 76.88-29.26 76.52-29.57 75.52-29.57L75.52-29.57 72.38-29.57ZM78.29-6.62Q78.95-6.67 79.4-6.98 79.86-7.29 79.86-7.9L79.86-7.9 79.86-12.24Q79.86-13.29 79.38-13.76 78.9-14.24 78.19-14.19L78.19-14.19 70.19-14.19 70.19-0.95Q70.19 0.33 70.83 0.95 71.48 1.57 72.38 1.67L72.38 1.67 84.67 1.67 84.05 4.62 71.24 4.62Q69.38 4.52 68.1 3.38 66.81 2.24 66.81-0.05L66.81-0.05 66.81-17.33 68.95-17.33 70.19-17.33 79.86-17.33Q81.33-17.29 82.38-16.52 83.43-15.76 83.43-14.19L83.43-14.19 83.43-7.38Q83.43-5.62 82.38-4.69 81.33-3.76 79.86-3.62L79.86-3.62 75.14-3.62 74.52-6.62 78.29-6.62ZM91.14 0.43L91.14-33.33 94.71-33.33 94.71 1.62Q94.71 3.14 93.67 3.93 92.62 4.71 91.14 4.76L91.14 4.76 87.62 4.76 87.05 1.76 89.62 1.76Q90.24 1.76 90.69 1.45 91.14 1.14 91.14 0.43L91.14 0.43ZM120.52-30.14L120.52-14.1 103.76-14.1 103.76-32.81 117.14-32.81Q118.86-32.81 119.69-32.02 120.52-31.24 120.52-30.14L120.52-30.14ZM115.76-29.81L107.29-29.81 107.29-27.52 116.95-27.52 116.95-28.48Q116.95-29.1 116.6-29.43 116.24-29.76 115.76-29.81L115.76-29.81ZM116.95-24.57L107.29-24.57 107.29-22.29 116.95-22.29 116.95-24.57ZM116.95-17.05L116.95-19.33 107.29-19.33 107.29-17.05 116.95-17.05ZM114.57-9.38L114.57-12.24 122.43-12.24 122.43-21.43 125.81-21.43 125.76-12.38 125.81-9.29 118.1-9.29 118.1-6.62 123.05-6.62Q124.76-6.62 125.57-5.74 126.38-4.86 126.43-3.62L126.43-3.62 126.43 4.52 123.05 4.52 123.05-2.38Q123.05-3 122.67-3.29 122.29-3.57 121.71-3.62L121.71-3.62 118.14-3.62 118.14 4.76 114.57 4.76 114.57-9.38ZM98.43 4.52Q99.43 0.95 99.81-3.62L99.81-3.62 97.38-3.62 97.38-6.62 106.14-6.62 106.14-9.29 100.81-9.29Q99.86-9.29 99.17-9.98 98.48-10.67 98.48-11.62L98.48-11.62 98.48-12.38 98.48-21.43 101.81-21.43 101.86-13.19Q101.86-12.81 102.12-12.52 102.38-12.24 102.76-12.24L102.76-12.24 109.71-12.24 109.67-9.38 109.67-0.1 109.67 4.76 106.14 4.76 106.14-3.62 103.24-3.62Q103.19-1.86 102.9 0.36 102.62 2.57 102.05 4.52L102.05 4.52 98.43 4.52Z" transform="translate(-1.3300000429153442, 33.33000183105469)"></path></g> <!----> <!----> <!----> <!----> <!----> <!----> <!----></g></g> <g data-gra="path-slogan" fill-rule="" class="tp-slogan iconsvg-slogansvg" fill="#333" transform="translate(1.3944435119628906,44.090003967285156)"><!----> <!----> <g transform="scale(1, 1)"><g transform="scale(1)"><path d="M7.31-3.61L4.69-3.61L4.69-4.59L8.44-4.59L8.44 0L7.69 0L7.41-1.08Q6.42 0.09 4.59 0.14L4.59 0.14Q2.86 0.14 1.92-0.75L1.92-0.75Q0.52-2.06 0.56-4.36L0.56-4.36Q0.89-8.63 4.64-8.81L4.64-8.81Q7.83-8.63 8.30-6L8.30-6L7.17-6Q6.70-7.78 4.59-7.83L4.59-7.83Q1.92-7.64 1.78-4.31L1.78-4.31Q1.78-0.75 4.64-0.75L4.64-0.75Q5.67-0.75 6.42-1.31L6.42-1.31Q7.36-2.06 7.31-3.61L7.31-3.61ZM14.93-3.19L14.93-8.58L16.10-8.58L16.10-3.05Q15.96 0.05 12.58 0.14L12.58 0.14Q9.44 0.05 9.30-2.86L9.30-2.86L9.30-8.58L10.47-8.58L10.47-3.19Q10.52-0.84 12.63-0.80L12.63-0.80Q14.93-0.84 14.93-3.19L14.93-3.19ZM17.10-8.58L18.27-8.58L18.27 0L17.10 0L17.10-8.58ZM20.12-1.03L25.42-1.03L25.42 0L18.67 0L18.67-0.94L23.92-7.59L19.04-7.59L19.04-8.58L25.42-8.58L25.42-7.59L20.12-1.03ZM26.75-5.06L31.25-5.06L31.25-8.58L32.42-8.58L32.42 0L31.25 0L31.25-3.98L26.75-3.98L26.75 0L25.58 0L25.58-8.58L26.75-8.58L26.75-5.06ZM40.04-4.27L40.04-4.27Q39.85-7.64 37.04-7.83L37.04-7.83Q34.18-7.69 34.04-4.27L34.04-4.27Q34.18-0.94 37.04-0.80L37.04-0.80Q39.85-0.98 40.04-4.27ZM41.21-4.27L41.21-4.27Q40.93 0 37.04 0.14L37.04 0.14Q33.10 0 32.82-4.27L32.82-4.27Q33.05-8.72 37.04-8.81L37.04-8.81Q40.93-8.67 41.21-4.27ZM47.28-3.19L47.28-8.58L48.45-8.58L48.45-3.05Q48.31 0.05 44.93 0.14L44.93 0.14Q41.79 0.05 41.65-2.86L41.65-2.86L41.65-8.58L42.82-8.58L42.82-3.19Q42.87-0.84 44.98-0.80L44.98-0.80Q47.28-0.84 47.28-3.19L47.28-3.19ZM58.80-6.05L58.80-6.05L57.68-6.05Q57.25-7.78 55.29-7.83L55.29-7.83Q52.57-7.69 52.47-4.36L52.47-4.36Q52.47-0.80 55.33-0.80L55.33-0.80Q57.30-0.84 57.77-3.19L57.77-3.19L58.89-3.19Q58.38 0.05 55.10 0.14L55.10 0.14Q51.35 0 51.25-4.31L51.25-4.31Q51.44-8.63 55.29-8.81L55.29-8.81Q58.33-8.72 58.80-6.05ZM60.46-5.06L64.96-5.06L64.96-8.58L66.13-8.58L66.13 0L64.96 0L64.96-3.98L60.46-3.98L60.46 0L59.29 0L59.29-8.58L60.46-8.58L60.46-5.06ZM72.62-3.19L72.62-8.58L73.79-8.58L73.79-3.05Q73.65 0.05 70.28 0.14L70.28 0.14Q67.14 0.05 67.00-2.86L67.00-2.86L67.00-8.58L68.17-8.58L68.17-3.19Q68.22-0.84 70.33-0.80L70.33-0.80Q72.62-0.84 72.62-3.19L72.62-3.19ZM80.28 0L79.44-2.48L75.97-2.48L75.08 0L73.91 0L77.14-8.58L78.45-8.58L81.55 0L80.28 0ZM77.70-7.31L76.35-3.52L79.02-3.52L77.75-7.31L77.70-7.31ZM83.02-8.58L87.33-1.64L87.33-8.58L88.46-8.58L88.46 0L87.15 0L82.79-6.94L82.74-6.94L82.74 0L81.62 0L81.62-8.58L83.02-8.58ZM95.70-3.61L93.07-3.61L93.07-4.59L96.82-4.59L96.82 0L96.07 0L95.79-1.08Q94.81 0.09 92.98 0.14L92.98 0.14Q91.24 0.14 90.31-0.75L90.31-0.75Q88.90-2.06 88.95-4.36L88.95-4.36Q89.28-8.63 93.03-8.81L93.03-8.81Q96.21-8.63 96.68-6L96.68-6L95.56-6Q95.09-7.78 92.98-7.83L92.98-7.83Q90.31-7.64 90.17-4.31L90.17-4.31Q90.17-0.75 93.03-0.75L93.03-0.75Q94.06-0.75 94.81-1.31L94.81-1.31Q95.74-2.06 95.70-3.61L95.70-3.61ZM101.16 0L97.69 0L97.69-8.58L101.20-8.58Q104.67-8.39 104.81-4.41L104.81-4.41Q104.62-0.09 101.16 0L101.16 0ZM101.01-7.64L98.86-7.64L98.86-0.98L101.11-0.98Q103.55-1.13 103.64-4.31L103.64-4.31Q103.59-7.55 101.01-7.64L101.01-7.64ZM105.49-8.58L106.66-8.58L106.66 0L105.49 0L105.49-8.58ZM109.07-8.58L113.38-1.64L113.38-8.58L114.51-8.58L114.51 0L113.20 0L108.84-6.94L108.79-6.94L108.79 0L107.66 0L107.66-8.58L109.07-8.58ZM121.75-3.61L119.12-3.61L119.12-4.59L122.87-4.59L122.87 0L122.12 0L121.84-1.08Q120.86 0.09 119.03 0.14L119.03 0.14Q117.29 0.14 116.36-0.75L116.36-0.75Q114.95-2.06 115.00-4.36L115.00-4.36Q115.32-8.63 119.07-8.81L119.07-8.81Q122.26-8.63 122.73-6L122.73-6L121.61-6Q121.14-7.78 119.03-7.83L119.03-7.83Q116.36-7.64 116.22-4.31L116.22-4.31Q116.22-0.75 119.07-0.75L119.07-0.75Q120.11-0.75 120.86-1.31L120.86-1.31Q121.79-2.06 121.75-3.61L121.75-3.61Z" transform="translate(-0.5609879032258065, 8.8125)"></path></g></g></g></g></g><defs v-gra="od"></defs></svg>